# xmcd
#
# Track frame offsets: 
#        150
#        12605
#        31884
#        61280
#        77558
#        85207
#        111308
#        121957
#        139361
#        145955
#        155178
#        181129
#        204906
#        222084
#        231381
#        239931
#        257260
#        268135
#        288011
#        300309
#
# Disc length: 4182 seconds
#
# Revision: 2
# Processed by: cddbd v1.5.2PL0 Copyright (c) Steve Scherf et al.
# Submitted via: ExactAudioCopy v1.0b3
#
DISCID=22105414
DTITLE=Carmen Sylva, Sebastian Weigle - Hans Sommer - Sapphos Gesänge 
DTITLE=Orchesterlieder
DYEAR=2012
DGENRE=Classical
TTITLE0=Die Blume verblühet Auf fliessender Flut
TTITLE1=Wozu soll ich Reden?
TTITLE2=Hört Mich, Ihr grausamen Götter!
TTITLE3=Nicht lange ist's her
TTITLE4=Ich singe der Kraft, die die Erde hält
TTITLE5=Weine nicht, weil dich die Götter gesendet
TTITLE6=Odysseus Op. 11 Nr. 1
TTITLE7=Der Fischer (Goethe)
TTITLE8=König und Floh (Goethe)
TTITLE9=Der Türmer singt auf der Schosswarte (Goethe)
TTITLE10=Ach neige, du Schmerzenreiche (Goethe)
TTITLE11=An den Mond (Goethe)
TTITLE12=Mailied (Goethe)
TTITLE13=Frech und froh (Goethe)
TTITLE14=Des Harfners Gesang (Goethe)
TTITLE15=Mignon singt, als Engel angetan (Goethe)
TTITLE16=Mignons Sehnen (Goethe)
TTITLE17=Symbolum (Goethe)
TTITLE18=Wonne der Wehmut (Goethe)
TTITLE19=Wanderers Nachtlied (Goethe)
EXTD=
EXTT0=
EXTT1=
EXTT2=
EXTT3=
EXTT4=
EXTT5=
EXTT6=
EXTT7=
EXTT8=
EXTT9=
EXTT10=
EXTT11=
EXTT12=
EXTT13=
EXTT14=
EXTT15=
EXTT16=
EXTT17=
EXTT18=
EXTT19=
PLAYORDER=
